<mxfile host="Electron" agent="Mozilla/5.0 (Windows NT 10.0; Win64; x64) AppleWebKit/537.36 (KHTML, like Gecko) draw.io/28.0.6 Chrome/138.0.7204.100 Electron/37.2.3 Safari/537.36" version="28.0.6">
  <diagram name="Página-1" id="sCFkzcTT3qv4aU8ShHoP">
    <mxGraphModel dx="983" dy="580" grid="0" gridSize="10" guides="1" tooltips="1" connect="1" arrows="1" fold="1" page="1" pageScale="1" pageWidth="827" pageHeight="1169" math="0" shadow="0">
      <root>
        <mxCell id="0" />
        <mxCell id="1" parent="0" />
        <mxCell id="daend2ZoPBjT4WrdPd4c-2" value="Revisión y diseño de banner de nombres de asignaturas Moodle" style="shape=table;startSize=30;container=1;collapsible=0;childLayout=tableLayout;fixedRows=1;rowLines=0;fontStyle=0;strokeColor=default;fontSize=14;fontFamily=Times New Roman;" vertex="1" parent="1">
          <mxGeometry x="20" y="20" width="386.44827586206895" height="119.4583333333334" as="geometry" />
        </mxCell>
        <mxCell id="daend2ZoPBjT4WrdPd4c-3" value="" style="shape=tableRow;horizontal=0;startSize=0;swimlaneHead=0;swimlaneBody=0;top=0;left=0;bottom=0;right=0;collapsible=0;dropTarget=0;fillColor=none;points=[[0,0.5],[1,0.5]];portConstraint=eastwest;strokeColor=inherit;fontSize=16;fontFamily=Times New Roman;" vertex="1" parent="daend2ZoPBjT4WrdPd4c-2">
          <mxGeometry y="30" width="386.44827586206895" height="26" as="geometry" />
        </mxCell>
        <mxCell id="daend2ZoPBjT4WrdPd4c-4" value="&lt;font style=&quot;font-size: 14px;&quot;&gt;Detalle&lt;/font&gt;&lt;div&gt;&lt;br&gt;&lt;/div&gt;" style="shape=partialRectangle;html=1;whiteSpace=wrap;connectable=0;fillColor=none;top=0;left=0;bottom=0;right=0;overflow=hidden;pointerEvents=1;strokeColor=inherit;fontSize=16;fontFamily=Times New Roman;" vertex="1" parent="daend2ZoPBjT4WrdPd4c-3">
          <mxGeometry width="71" height="26" as="geometry">
            <mxRectangle width="71" height="26" as="alternateBounds" />
          </mxGeometry>
        </mxCell>
        <mxCell id="daend2ZoPBjT4WrdPd4c-5" value="&lt;font style=&quot;font-size: 14px;&quot;&gt;Ciclo 01-2025&lt;/font&gt;" style="shape=partialRectangle;html=1;whiteSpace=wrap;connectable=0;fillColor=none;top=0;left=0;bottom=0;right=0;align=left;spacingLeft=6;overflow=hidden;strokeColor=inherit;fontSize=16;fontFamily=Times New Roman;" vertex="1" parent="daend2ZoPBjT4WrdPd4c-3">
          <mxGeometry x="71" width="315" height="26" as="geometry">
            <mxRectangle width="315" height="26" as="alternateBounds" />
          </mxGeometry>
        </mxCell>
        <mxCell id="daend2ZoPBjT4WrdPd4c-6" value="" style="shape=tableRow;horizontal=0;startSize=0;swimlaneHead=0;swimlaneBody=0;top=0;left=0;bottom=0;right=0;collapsible=0;dropTarget=0;fillColor=none;points=[[0,0.5],[1,0.5]];portConstraint=eastwest;strokeColor=inherit;fontSize=16;fontFamily=Times New Roman;" vertex="1" parent="daend2ZoPBjT4WrdPd4c-2">
          <mxGeometry y="56" width="386.44827586206895" height="43" as="geometry" />
        </mxCell>
        <mxCell id="daend2ZoPBjT4WrdPd4c-7" value="&lt;font style=&quot;font-size: 14px;&quot;&gt;Encargado&lt;/font&gt;" style="shape=partialRectangle;html=1;whiteSpace=wrap;connectable=0;fillColor=none;top=0;left=0;bottom=0;right=0;overflow=hidden;strokeColor=inherit;fontSize=16;fontFamily=Times New Roman;" vertex="1" parent="daend2ZoPBjT4WrdPd4c-6">
          <mxGeometry width="71" height="43" as="geometry">
            <mxRectangle width="71" height="43" as="alternateBounds" />
          </mxGeometry>
        </mxCell>
        <mxCell id="daend2ZoPBjT4WrdPd4c-8" value="&lt;div&gt;&lt;span style=&quot;font-size: 14px;&quot;&gt;Fátima Hernández, David Segura y Luis Lemus&lt;/span&gt;&lt;/div&gt;" style="shape=partialRectangle;html=1;whiteSpace=wrap;connectable=0;fillColor=none;top=0;left=0;bottom=0;right=0;align=left;spacingLeft=6;overflow=hidden;strokeColor=inherit;fontSize=16;fontFamily=Times New Roman;" vertex="1" parent="daend2ZoPBjT4WrdPd4c-6">
          <mxGeometry x="71" width="315" height="43" as="geometry">
            <mxRectangle width="315" height="43" as="alternateBounds" />
          </mxGeometry>
        </mxCell>
        <mxCell id="daend2ZoPBjT4WrdPd4c-9" value="" style="shape=tableRow;horizontal=0;startSize=0;swimlaneHead=0;swimlaneBody=0;top=0;left=0;bottom=0;right=0;collapsible=0;dropTarget=0;fillColor=none;points=[[0,0.5],[1,0.5]];portConstraint=eastwest;strokeColor=inherit;fontSize=16;fontFamily=Times New Roman;" vertex="1" parent="daend2ZoPBjT4WrdPd4c-2">
          <mxGeometry y="99" width="386.44827586206895" height="20" as="geometry" />
        </mxCell>
        <mxCell id="daend2ZoPBjT4WrdPd4c-10" value="" style="shape=partialRectangle;html=1;whiteSpace=wrap;connectable=0;fillColor=none;top=0;left=0;bottom=0;right=0;overflow=hidden;strokeColor=inherit;fontSize=16;fontFamily=Times New Roman;" vertex="1" parent="daend2ZoPBjT4WrdPd4c-9">
          <mxGeometry width="71" height="20" as="geometry">
            <mxRectangle width="71" height="20" as="alternateBounds" />
          </mxGeometry>
        </mxCell>
        <mxCell id="daend2ZoPBjT4WrdPd4c-11" value="" style="shape=partialRectangle;html=1;whiteSpace=wrap;connectable=0;fillColor=none;top=0;left=0;bottom=0;right=0;align=left;spacingLeft=6;overflow=hidden;strokeColor=inherit;fontSize=16;fontFamily=Times New Roman;" vertex="1" parent="daend2ZoPBjT4WrdPd4c-9">
          <mxGeometry x="71" width="315" height="20" as="geometry">
            <mxRectangle width="315" height="20" as="alternateBounds" />
          </mxGeometry>
        </mxCell>
        <mxCell id="daend2ZoPBjT4WrdPd4c-12" value="" style="edgeStyle=orthogonalEdgeStyle;rounded=0;orthogonalLoop=1;jettySize=auto;html=1;fontSize=13;" edge="1" parent="1" source="daend2ZoPBjT4WrdPd4c-13" target="daend2ZoPBjT4WrdPd4c-15">
          <mxGeometry relative="1" as="geometry" />
        </mxCell>
        <mxCell id="daend2ZoPBjT4WrdPd4c-13" value="Revisión y diseño de banner de nombres de asignaturas Moodle" style="rounded=0;whiteSpace=wrap;html=1;fillColor=#dae8fc;strokeColor=#6c8ebf;fontFamily=Times New Roman;fontSize=13;" vertex="1" parent="1">
          <mxGeometry x="295" y="172" width="248" height="42" as="geometry" />
        </mxCell>
        <mxCell id="daend2ZoPBjT4WrdPd4c-14" value="" style="edgeStyle=orthogonalEdgeStyle;rounded=0;orthogonalLoop=1;jettySize=auto;html=1;fontSize=13;" edge="1" parent="1" source="daend2ZoPBjT4WrdPd4c-15" target="daend2ZoPBjT4WrdPd4c-17">
          <mxGeometry relative="1" as="geometry" />
        </mxCell>
        <mxCell id="daend2ZoPBjT4WrdPd4c-15" value="El área de diseño descarga o solicita el listado de materias al área técnica que serán impartidas en el ciclo correspondiente" style="whiteSpace=wrap;html=1;fontSize=13;fontFamily=Times New Roman;rounded=0;" vertex="1" parent="1">
          <mxGeometry x="294" y="248" width="249" height="59" as="geometry" />
        </mxCell>
        <mxCell id="daend2ZoPBjT4WrdPd4c-16" value="" style="edgeStyle=orthogonalEdgeStyle;rounded=0;orthogonalLoop=1;jettySize=auto;html=1;fontSize=13;" edge="1" parent="1" source="daend2ZoPBjT4WrdPd4c-17" target="daend2ZoPBjT4WrdPd4c-19">
          <mxGeometry relative="1" as="geometry" />
        </mxCell>
        <mxCell id="daend2ZoPBjT4WrdPd4c-17" value="El área de diseño realiza 3 propuestas utilizando línea gráfica institucional" style="whiteSpace=wrap;html=1;fontSize=13;fontFamily=Times New Roman;rounded=0;" vertex="1" parent="1">
          <mxGeometry x="331" y="335" width="176" height="47" as="geometry" />
        </mxCell>
        <mxCell id="daend2ZoPBjT4WrdPd4c-18" value="" style="edgeStyle=orthogonalEdgeStyle;rounded=0;orthogonalLoop=1;jettySize=auto;html=1;fontSize=13;" edge="1" parent="1" source="daend2ZoPBjT4WrdPd4c-19" target="daend2ZoPBjT4WrdPd4c-22">
          <mxGeometry relative="1" as="geometry" />
        </mxCell>
        <mxCell id="daend2ZoPBjT4WrdPd4c-19" value="Envío de propuesta a la Dirección de Educación Virtual para autorizar" style="whiteSpace=wrap;html=1;fontSize=13;fontFamily=Times New Roman;rounded=0;" vertex="1" parent="1">
          <mxGeometry x="334" y="408" width="170" height="60" as="geometry" />
        </mxCell>
        <mxCell id="daend2ZoPBjT4WrdPd4c-20" style="edgeStyle=orthogonalEdgeStyle;rounded=0;orthogonalLoop=1;jettySize=auto;html=1;exitX=0;exitY=0.5;exitDx=0;exitDy=0;entryX=0;entryY=0.5;entryDx=0;entryDy=0;fontSize=13;" edge="1" parent="1" source="daend2ZoPBjT4WrdPd4c-22" target="daend2ZoPBjT4WrdPd4c-17">
          <mxGeometry relative="1" as="geometry" />
        </mxCell>
        <mxCell id="daend2ZoPBjT4WrdPd4c-21" value="" style="edgeStyle=orthogonalEdgeStyle;rounded=0;orthogonalLoop=1;jettySize=auto;html=1;fontSize=13;" edge="1" parent="1" source="daend2ZoPBjT4WrdPd4c-22" target="daend2ZoPBjT4WrdPd4c-25">
          <mxGeometry relative="1" as="geometry" />
        </mxCell>
        <mxCell id="daend2ZoPBjT4WrdPd4c-22" value="¿Autorizado?" style="rhombus;whiteSpace=wrap;html=1;fontSize=13;fontFamily=Times New Roman;rounded=0;" vertex="1" parent="1">
          <mxGeometry x="361" y="486" width="116" height="80" as="geometry" />
        </mxCell>
        <mxCell id="daend2ZoPBjT4WrdPd4c-23" value="&lt;font style=&quot;font-size: 12px;&quot;&gt;NO&lt;/font&gt;" style="text;html=1;align=center;verticalAlign=middle;resizable=0;points=[];autosize=1;strokeColor=none;fillColor=none;fontSize=13;" vertex="1" parent="1">
          <mxGeometry x="338" y="529" width="36" height="28" as="geometry" />
        </mxCell>
        <mxCell id="daend2ZoPBjT4WrdPd4c-24" value="" style="edgeStyle=orthogonalEdgeStyle;rounded=0;orthogonalLoop=1;jettySize=auto;html=1;fontSize=13;" edge="1" parent="1" source="daend2ZoPBjT4WrdPd4c-25" target="daend2ZoPBjT4WrdPd4c-27">
          <mxGeometry relative="1" as="geometry" />
        </mxCell>
        <mxCell id="daend2ZoPBjT4WrdPd4c-25" value="&lt;font&gt;Crear el banner para cada una de las aulas con vigencia de un año&lt;/font&gt;" style="whiteSpace=wrap;html=1;fontSize=13;fontFamily=Times New Roman;rounded=0;" vertex="1" parent="1">
          <mxGeometry x="509.5" y="573" width="212" height="37" as="geometry" />
        </mxCell>
        <mxCell id="daend2ZoPBjT4WrdPd4c-26" value="" style="edgeStyle=orthogonalEdgeStyle;rounded=0;orthogonalLoop=1;jettySize=auto;html=1;fontSize=13;" edge="1" parent="1" source="daend2ZoPBjT4WrdPd4c-27" target="daend2ZoPBjT4WrdPd4c-29">
          <mxGeometry relative="1" as="geometry" />
        </mxCell>
        <mxCell id="daend2ZoPBjT4WrdPd4c-27" value="&lt;span&gt;Exportación de imagen en PNG de cada uno de los banners&lt;/span&gt;" style="whiteSpace=wrap;html=1;fontSize=13;fontFamily=Times New Roman;rounded=0;" vertex="1" parent="1">
          <mxGeometry x="520.5" y="640" width="190" height="37" as="geometry" />
        </mxCell>
        <mxCell id="daend2ZoPBjT4WrdPd4c-28" value="" style="edgeStyle=orthogonalEdgeStyle;rounded=0;orthogonalLoop=1;jettySize=auto;html=1;fontSize=13;" edge="1" parent="1" source="daend2ZoPBjT4WrdPd4c-29" target="daend2ZoPBjT4WrdPd4c-31">
          <mxGeometry relative="1" as="geometry" />
        </mxCell>
        <mxCell id="daend2ZoPBjT4WrdPd4c-29" value="&lt;font&gt;El área de diseño ingresas con credenciales administrativas en Moodle&lt;/font&gt;" style="whiteSpace=wrap;html=1;fontSize=13;fontFamily=Times New Roman;rounded=0;" vertex="1" parent="1">
          <mxGeometry x="532" y="702" width="167" height="60" as="geometry" />
        </mxCell>
        <mxCell id="daend2ZoPBjT4WrdPd4c-30" value="" style="edgeStyle=orthogonalEdgeStyle;rounded=0;orthogonalLoop=1;jettySize=auto;html=1;fontSize=13;" edge="1" parent="1" source="daend2ZoPBjT4WrdPd4c-31" target="daend2ZoPBjT4WrdPd4c-32">
          <mxGeometry relative="1" as="geometry" />
        </mxCell>
        <mxCell id="daend2ZoPBjT4WrdPd4c-31" value="Administración del sitio / Cursos / Administrar cursos y categorías / Buscar categoría del ciclo actual / Ingresar al aula / Activar modo de edición / General / Editar sección / Resumen / Colocar o arrastrar imagen / Guardar cambios" style="whiteSpace=wrap;html=1;fontSize=13;fontFamily=Times New Roman;rounded=0;" vertex="1" parent="1">
          <mxGeometry x="472.90999999999997" y="794" width="285.18" height="100" as="geometry" />
        </mxCell>
        <mxCell id="daend2ZoPBjT4WrdPd4c-32" value="Validar que todo este correcto" style="whiteSpace=wrap;html=1;fontSize=13;fontFamily=Times New Roman;rounded=0;" vertex="1" parent="1">
          <mxGeometry x="555.5" y="916" width="120" height="40" as="geometry" />
        </mxCell>
        <mxCell id="daend2ZoPBjT4WrdPd4c-33" value="SI" style="text;html=1;align=center;verticalAlign=middle;resizable=0;points=[];autosize=1;strokeColor=none;fillColor=none;" vertex="1" parent="1">
          <mxGeometry x="462" y="531" width="29" height="26" as="geometry" />
        </mxCell>
      </root>
    </mxGraphModel>
  </diagram>
</mxfile>
